<svg xmlns="http://www.w3.org/2000/svg" xmlns:xlink="http://www.w3.org/1999/xlink" width="552" height="579"><defs><rect id="h" width="166.6" height="58.4" rx="4"/><rect id="i" y="72.4" width="166.6" height="58.4" rx="4"/><rect id="j" y="144.8" width="166.6" height="58.4" rx="4"/><rect id="k" y="217.2" width="166.6" height="58.4" rx="4"/><rect id="l" y="289.6" width="166.6" height="58.4" rx="4"/><path d="M204 402c0 10-7 20-18 20H35c-10 0-20-10-20-20V30c0-11 10-18 20-18h18c3 0 5-1 5 4l2 6 6 3 5 1h80l4-1c3 0 5-2 6-3l2-6c1-5 2-4 6-4h17c11 0 18 7 18 18v372zM99 14h23l2 1-2 2H99l-2-2 2-1zm36 0a3 3 0 11-5 0 3 3 0 015 0zm81 85V31c0-17-14-31-31-31H34C16 0 2 15 2 32v25a2 2 0 00-2 2v13a2 2 0 002 2v15a2 2 0 00-2 2v27a2 2 0 002 2v9a2 2 0 00-2 2v27a2 2 0 002 2v243c0 18 15 33 32 33h151c17 0 31-14 31-31V149h1a2 2 0 001-1v-47l-1-2h-1z" id="d"/><path id="b" d="M65 228v-26h9l5 1 3 2 1 4-1 3a6 6 0 01-2 2l3 3 1 3-1 4-4 3-5 1h-9zm5-21v5h6l1-2-1-3h-6zm0 16h4l3-1 1-2-1-3h-7v6zm17 5v-27h5v27h-5zm18 0l-4-1a10 10 0 01-3-2 9 9 0 01-2-3l-1-4 1-4a10 10 0 012-3 10 10 0 013-2l4-1 4 1a10 10 0 014 2 9 9 0 012 3v8a10 10 0 01-2 3 10 10 0 01-4 2l-4 1zm0-4a4 4 0 003-1l2-2v-3-3l-2-2a4 4 0 00-3 0h-2l-2 2v6l2 2 2 1zm22 3a8 8 0 01-4-1 8 8 0 01-3-2 9 9 0 01-1-3l-1-3 1-4a9 9 0 012-3 9 9 0 012-2 8 8 0 017 0 6 6 0 013 2v-2h4v20a9 9 0 01-2 3 9 9 0 01-3 2l-4 1-4-1a9 9 0 01-3-1 9 9 0 01-2-3l5-1a5 5 0 001 1l3 1 2-1a4 4 0 002-2v-4a7 7 0 01-2 2l-3 1zm1-4l2-1a5 5 0 002-2v-2-3a5 5 0 00-2-2h-5a5 5 0 00-1 2l-1 3a5 5 0 002 4l3 1zm13 5v-19h5v3l2-3h3a6 6 0 011 0h1l-1 5a7 7 0 00-1-1c-2 0-3 1-3 2l-2 3v10h-5z"/><path id="e" d="M122 14H99l-2 1 2 2h23l2-2-2-1m10-3a3 3 0 100 6 3 3 0 000-6"/><linearGradient x1="38.4%" y1="0%" x2="61.6%" y2="100%" id="a"><stop stop-color="#ff8f71" offset="0%"/><stop stop-color="#ff3e55" offset="100%"/></linearGradient><linearGradient x1="0%" y1="42.5%" x2="100%" y2="57.5%" id="f"><stop stop-color="#ff8f71" offset="0%"/><stop stop-color="#ff3e55" offset="100%"/></linearGradient><filter x="-32.1%" y="-11.5%" width="164.2%" height="132.2%" id="c"><feOffset dy="20" in="SourceAlpha"/><feGaussianBlur stdDeviation="20"/><feColorMatrix values="0 0 0 0 0.421821759 0 0 0 0 0.554338424 0 0 0 0 0.893710371 0 0 0 0.243444056 0"/></filter><filter x="-21%" y="-42.8%" width="142%" height="219.8%" id="g"><feOffset dy="10" in="SourceAlpha"/><feGaussianBlur stdDeviation="10"/><feColorMatrix values="0 0 0 0 0.421821759 0 0 0 0 0.554338424 0 0 0 0 0.893710371 0 0 0 0.243444056 0"/></filter></defs><g fill="none" fill-rule="evenodd"><g transform="translate(40 20)"><rect fill="url(#a)" x="8" y="5" width="204" height="423" rx="22"/><use xlink:href="#b" fill="#fff" fill-rule="nonzero"/><use fill="#000" filter="url(#c)" xlink:href="#d"/><use fill="#1d1d25" xlink:href="#d"/><use xlink:href="#e" fill="#000"/></g><g transform="translate(293 83)"><rect fill="url(#a)" x="8" y="5" width="204" height="423" rx="22"/><rect fill="#fff" x="15" y="11" width="189.3" height="414.3" rx="22"/><rect fill="url(#f)" x="15" y="11" width="189.3" height="73.3" rx="22"/><g transform="translate(26 57)"><use fill="#000" filter="url(#g)" xlink:href="#h"/><use fill="#fff" xlink:href="#h"/><use fill="#000" filter="url(#g)" xlink:href="#i"/><use fill="#fff" xlink:href="#i"/><use fill="#000" filter="url(#g)" xlink:href="#j"/><use fill="#fff" xlink:href="#j"/><use fill="#000" filter="url(#g)" xlink:href="#k"/><use fill="#fff" xlink:href="#k"/><use fill="#000" filter="url(#g)" xlink:href="#l"/><use fill="#fff" xlink:href="#l"/></g><use xlink:href="#b" fill="#fff" fill-rule="nonzero"/><use fill="#000" filter="url(#c)" xlink:href="#P" href="#d"/><use fill="#1d1d25" xlink:href="#P" href="#d"/><use xlink:href="#e" fill="#000"/></g></g></svg>